# Blender v2.74 (sub 0) OBJ File: 'progettoCubo.blend'
# www.blender.org
g progettocubo
v 1.000000 -1.000000 -1.000000
v 1.000000 -1.000000 1.000000
v -1.000000 -1.000000 1.000000
v -1.000000 -1.000000 -1.000000
v 1.000000 1.000000 -1.000000
v -1.000000 1.000000 -1.000000
v -1.000000 1.000000 1.000000
v 1.000000 1.000000 1.000000
vt 0.750000 0.666666 0
vt 0.750000 0.333333 0
vt 1.000000 0.333333 0
vt 1.000000 0.666666 0
vt 0.500000 0.666666 0
vt 0.250000 0.666666 0
vt 0.250000 0.333333 0
vt 0.500000 0.333333 0
vt 0.500000 0.000000 0
vt 0.250000 0.000000 0
vt 0.000000 0.333333 0
vt 0.000000 0.666666 0
vt 0.500000 1.000000 0
vt 0.250000 1.000000 0
vn 0.000000 -1.000000 -0.000000
vn -0.000000 1.000000 0.000000
vn 1.000000 0.000000 0.000000
vn -0.000000 -0.000000 1.000000
vn -1.000000 -0.000000 0.000000
vn 0.000000 0.000000 -1.000000
f 1/8/1 2/9/1 3/10/1 4/7/1
f 5/5/2 6/6/2 7/14/2 8/13/2
f 1/8/3 5/5/3 8/1/3 2/2/3
f 2/2/4 8/1/4 7/4/4 3/3/4
f 3/11/5 7/12/5 6/6/5 4/7/5
f 5/5/6 1/8/6 4/7/6 6/6/6
